<?xml version="1.0" standalone="no"?>
<!DOCTYPE svg PUBLIC "-//W3C//DTD SVG 20010904//EN"
 "http://www.w3.org/TR/2001/REC-SVG-20010904/DTD/svg10.dtd">
<svg version="1.0" xmlns="http://www.w3.org/2000/svg"
 width="612.000000pt" height="387.000000pt" viewBox="0 0 612.000000 387.000000"
 preserveAspectRatio="xMidYMid meet">

<g transform="translate(0.000000,387.000000) scale(0.100000,-0.100000)"
fill="#000000" stroke="none">
<path d="M3560 2953 c0 -11 5 -24 12 -31 9 -9 9 -12 0 -12 -7 0 -12 -16 -12
-40 0 -22 -4 -40 -9 -40 -4 0 -6 -12 -3 -27 4 -21 2 -25 -12 -20 -19 7 -21 -4
-4 -21 9 -9 7 -12 -9 -12 -17 0 -21 -8 -27 -52 -12 -101 -14 -178 -5 -184 12
-7 11 -34 -1 -34 -5 0 -10 7 -10 15 0 8 -4 15 -9 15 -5 0 -9 -26 -8 -57 1 -36
-3 -58 -11 -61 -7 -2 -12 -20 -12 -39 0 -22 -7 -41 -17 -49 -22 -16 -1 -19 28
-4 87 47 363 121 502 136 68 6 68 7 62 33 -10 41 -109 202 -173 283 -101 125
-194 205 -251 214 -25 4 -31 2 -31 -13z"/>
<path d="M3461 2544 c0 -11 3 -14 6 -6 3 7 2 16 -1 19 -3 4 -6 -2 -5 -13z"/>
<path d="M4490 2301 c0 -5 -15 -12 -32 -16 -28 -6 -30 -8 -14 -14 18 -7 19 -8
2 -14 -10 -4 -25 -2 -32 4 -11 9 -14 8 -14 -5 0 -9 7 -16 15 -16 19 0 20 -26
1 -33 -9 -4 -17 1 -20 11 -3 9 -4 5 -2 -9 3 -25 1 -26 -31 -17 -41 11 -61 1
-36 -18 17 -12 16 -13 -9 -14 -15 0 -30 -4 -33 -10 -3 -5 -15 -10 -26 -10 -11
0 -19 -7 -19 -16 0 -11 5 -14 18 -9 13 5 14 4 5 -6 -10 -10 -15 -9 -27 1 -21
16 -48 6 -39 -16 5 -13 2 -15 -15 -9 -16 5 -22 2 -22 -9 0 -9 8 -15 18 -14 39
3 67 -2 54 -11 -7 -4 -24 -6 -38 -3 -27 5 -33 -15 -11 -37 10 -11 8 -13 -13
-8 -14 4 -42 1 -62 -5 -33 -10 -37 -14 -32 -35 4 -14 2 -23 -5 -23 -6 0 -11
-9 -11 -20 0 -11 5 -20 10 -20 15 0 12 -26 -4 -39 -10 -8 -16 -9 -21 -1 -3 5
-1 10 4 10 6 0 11 5 11 11 0 6 -8 9 -17 7 -22 -4 -30 -78 -10 -90 8 -5 7 -8
-5 -8 -9 0 -20 5 -24 11 -4 8 -9 7 -15 -2 -8 -12 -11 -12 -18 1 -11 17 -27 7
-16 -10 4 -7 16 -10 26 -7 11 3 19 1 19 -3 0 -5 3 -17 6 -27 4 -14 4 -15 -4
-4 -8 12 -14 12 -41 0 -37 -17 -41 -34 -6 -25 14 4 25 2 25 -4 0 -5 -5 -10
-11 -10 -6 0 -9 -7 -5 -15 3 -8 1 -15 -4 -15 -6 0 -10 7 -10 15 0 8 -5 15 -11
15 -5 0 -7 -5 -4 -11 4 -5 0 -18 -9 -27 -9 -11 -12 -23 -7 -31 8 -13 -12 -65
-29 -76 -5 -3 -7 -13 -4 -23 5 -16 5 -16 -6 1 -18 28 -27 20 -33 -28 -5 -48
-12 -63 -24 -52 -4 4 -1 13 5 19 15 15 16 65 0 74 -7 4 -8 3 -4 -5 4 -7 -2
-14 -15 -19 -15 -6 -18 -11 -11 -16 19 -11 14 -40 -8 -54 -20 -12 -28 -42 -10
-42 5 0 14 8 19 18 8 13 10 14 11 2 0 -8 -4 -22 -10 -30 -5 -9 -5 -17 1 -20 5
-4 3 -14 -5 -26 -12 -15 -17 -17 -28 -6 -11 11 -10 14 1 21 9 6 10 11 2 15
-11 7 -12 6 -16 -31 -2 -17 3 -23 16 -23 23 0 23 -9 2 -35 -13 -16 -15 -17
-10 -2 4 9 2 17 -4 17 -7 0 -8 -14 -4 -40 4 -27 3 -46 -5 -55 -7 -8 -10 -22
-6 -30 3 -9 0 -15 -9 -15 -8 0 -15 -4 -15 -10 0 -5 5 -10 12 -10 6 0 -3 -13
-20 -28 -38 -35 -41 -46 -7 -38 14 4 25 2 25 -3 0 -5 6 -11 13 -14 6 -2 2 -2
-11 0 -20 3 -23 0 -20 -19 2 -13 9 -22 17 -20 7 1 15 -7 18 -19 3 -11 9 -16
12 -10 4 6 12 7 21 0 13 -7 13 -10 1 -18 -7 -5 -10 -14 -6 -20 5 -9 10 -9 21
0 18 15 18 -1 -1 -37 -8 -15 -12 -31 -8 -34 3 -3 8 1 10 8 3 7 10 18 17 25 7
7 15 19 19 27 5 13 6 13 6 0 1 -9 -4 -21 -10 -27 -23 -23 -2 -43 46 -43 41 0
46 2 40 19 -5 16 -2 18 15 14 25 -7 25 -15 0 -38 -13 -12 -31 -16 -60 -13 -58
5 -44 -16 16 -23 27 -4 53 -2 58 2 6 5 16 9 23 9 23 0 14 -17 -17 -30 -16 -7
-30 -19 -30 -26 0 -8 -4 -14 -9 -14 -5 0 -8 -8 -7 -17 0 -10 -9 -20 -24 -24
l-25 -7 23 -7 c30 -10 22 -30 -12 -30 -15 0 -33 -8 -40 -17 -7 -10 -17 -18
-21 -18 -4 0 -14 -8 -21 -18 -10 -13 -16 -14 -22 -5 -6 10 -12 10 -28 -2 -10
-8 -29 -15 -41 -15 -12 0 -24 -4 -27 -9 -5 -8 -73 -14 -136 -12 -19 0 -21 -2
-10 -8 48 -27 331 -56 460 -46 342 25 648 164 822 374 10 12 15 21 11 21 -3 0
6 10 20 23 35 30 36 57 1 57 -21 0 -25 4 -21 20 4 15 0 20 -15 20 -18 0 -19 1
-2 17 16 17 16 18 1 21 -18 4 -23 17 -8 26 4 3 7 18 5 33 -2 16 -1 20 2 11 3
-10 11 -15 20 -11 12 4 12 8 2 20 -10 12 -9 17 5 24 9 6 17 17 17 25 0 8 27
42 60 76 33 33 60 69 60 79 0 10 5 21 10 24 6 3 10 19 10 35 0 16 5 32 10 35
6 3 10 19 10 36 0 16 4 29 9 29 6 0 10 8 10 18 -1 9 2 54 5 99 4 66 2 93 -15
145 -37 112 -97 205 -208 321 -60 64 -196 161 -210 152 -5 -3 -11 0 -13 5 -2
7 -14 7 -36 -1 -18 -6 -36 -9 -39 -5 -4 3 1 6 10 6 10 0 17 5 17 10 0 6 -9 10
-20 10 -11 0 -20 -4 -20 -9z m-365 -331 c-3 -5 -10 -10 -16 -10 -5 0 -9 5 -9
10 0 6 7 10 16 10 8 0 12 -4 9 -10z m-287 -559 c-1 -16 -5 -28 -9 -26 -6 5 0
55 7 55 3 0 3 -13 2 -29z m-12 -98 c-10 -10 -19 5 -10 18 6 11 8 11 12 0 2 -7
1 -15 -2 -18z m-36 -76 c0 -5 -4 -5 -10 -2 -5 3 -10 14 -10 23 0 15 2 15 10 2
5 -8 10 -19 10 -23z m-7 -104 c3 -5 -6 -9 -20 -10 -19 -1 -22 1 -12 8 17 11
26 11 32 2z m27 -54 c0 -5 -7 -6 -15 -3 -8 4 -15 13 -15 21 0 13 3 13 15 3 8
-7 15 -16 15 -21z m8 -49 c13 0 14 -2 3 -12 -11 -10 -14 -10 -18 0 -3 6 -12
12 -20 12 -13 0 -13 2 -2 17 13 15 14 15 17 0 2 -10 11 -17 20 -17z m62 -110
c0 -5 -6 -10 -14 -10 -8 0 -18 5 -21 10 -3 6 3 10 14 10 12 0 21 -4 21 -10z
m120 -129 c0 -5 -14 -14 -31 -20 -17 -6 -28 -15 -24 -21 3 -5 4 -10 1 -10 -2
0 -11 -2 -19 -5 -10 -5 -13 1 -9 24 4 29 9 32 70 40 6 0 12 -3 12 -8z"/>
<path d="M2384 2279 c-2 -4 2 -9 9 -11 12 -2 11 -12 -2 -55 -8 -29 -21 -53
-28 -53 -7 0 -13 -7 -13 -15 0 -8 7 -15 15 -15 8 0 15 -4 15 -10 0 -5 -4 -10
-10 -10 -5 0 -13 -18 -16 -40 -6 -36 -24 -57 -24 -28 0 6 -3 8 -7 4 -5 -4 6
-19 22 -32 28 -23 29 -26 13 -38 -22 -17 -41 -96 -26 -113 10 -12 4 -17 -14
-14 -11 1 -22 -49 -13 -57 4 -4 10 -1 12 6 3 6 9 9 15 6 6 -4 5 -9 -3 -15 -7
-4 -13 -24 -13 -43 0 -39 -7 -44 -26 -21 -7 8 -16 15 -21 15 -14 0 -11 -28 5
-42 10 -10 11 -17 2 -31 -9 -14 -8 -20 4 -27 10 -6 11 -10 3 -10 -8 0 -13 -13
-13 -31 0 -20 -4 -29 -12 -26 -7 2 -12 14 -11 26 2 14 -1 20 -8 16 -6 -4 -7
-19 -4 -35 4 -18 1 -33 -9 -43 -9 -9 -20 -27 -26 -41 -9 -24 -7 -26 18 -27 17
-1 20 -3 10 -6 -10 -2 -18 -10 -18 -18 0 -7 -6 -15 -14 -18 -18 -7 -16 -78 3
-101 7 -9 11 -22 8 -31 -4 -8 -2 -17 3 -20 18 -11 11 -33 -9 -28 -21 5 -37
-12 -21 -22 16 -10 12 -75 -5 -81 -8 -4 -15 -10 -15 -15 0 -13 24 -11 56 6 20
10 23 15 12 15 -10 0 -18 5 -18 10 0 17 27 11 34 -7 5 -11 -1 -23 -15 -34 -14
-11 -18 -18 -10 -23 6 -4 16 -4 21 -1 6 3 13 -1 16 -10 5 -12 9 -13 20 -4 10
8 18 9 27 0 8 -6 17 -7 21 -3 4 4 7 2 6 -3 -1 -6 -1 -28 0 -50 2 -39 2 -39 12
-12 5 15 14 27 19 27 13 0 11 -34 -2 -47 -8 -8 -4 -15 12 -27 l23 -16 -22 -16
c-12 -8 -20 -20 -16 -25 10 -17 -5 -59 -22 -59 -8 0 -26 -13 -40 -29 -13 -16
-38 -35 -56 -44 -144 -66 -205 -84 -318 -92 -107 -8 -128 -16 -70 -26 186 -31
429 23 600 136 92 59 241 208 295 292 42 66 58 74 63 30 3 -25 58 -95 67 -85
3 2 -4 27 -14 54 -25 64 -49 172 -57 260 -7 72 6 176 33 272 15 53 107 242
143 292 22 31 26 45 9 35 -6 -4 -19 2 -30 14 -10 11 -38 25 -62 32 -23 6 -66
22 -95 35 -29 13 -57 24 -63 24 -6 0 -45 36 -87 81 -112 118 -161 152 -217
154 -26 0 -48 -2 -51 -6z m-14 -369 c0 -5 -4 -10 -10 -10 -5 0 -10 5 -10 10 0
6 5 10 10 10 6 0 10 -4 10 -10z m44 -923 c7 -6 6 -7 -4 -4 -8 2 -16 14 -17 28
-1 19 -1 20 4 4 3 -11 10 -24 17 -28z"/>
<path d="M4335 2240 c3 -5 10 -10 16 -10 5 0 9 5 9 10 0 6 -7 10 -16 10 -8 0
-12 -4 -9 -10z"/>
<path d="M4271 2204 c0 -11 3 -14 6 -6 3 7 2 16 -1 19 -3 4 -6 -2 -5 -13z"/>
<path d="M4100 2070 c0 -5 7 -10 15 -10 8 0 15 5 15 10 0 6 -7 10 -15 10 -8 0
-15 -4 -15 -10z"/>
<path d="M4150 2041 c0 -5 -10 -12 -22 -14 -20 -4 -19 -4 5 -6 18 -1 27 4 27
14 0 8 -2 15 -5 15 -3 0 -5 -4 -5 -9z"/>
<path d="M4077 2014 c3 -7 9 -14 14 -14 14 0 10 17 -5 23 -10 4 -13 1 -9 -9z"/>
<path d="M2290 1960 c0 -5 5 -10 11 -10 5 0 7 5 4 10 -3 6 -8 10 -11 10 -2 0
-4 -4 -4 -10z"/>
<path d="M2311 1914 c0 -11 3 -14 6 -6 3 7 2 16 -1 19 -3 4 -6 -2 -5 -13z"/>
<path d="M3987 1851 c-4 -17 -3 -21 5 -13 5 5 8 16 6 23 -3 8 -7 3 -11 -10z"/>
<path d="M2240 1816 c0 -9 5 -16 10 -16 6 0 10 4 10 9 0 6 -4 13 -10 16 -5 3
-10 -1 -10 -9z"/>
<path d="M3917 1783 c-4 -3 -7 -20 -6 -37 l1 -31 8 35 c9 36 8 45 -3 33z"/>
<path d="M3880 1691 c0 -11 4 -21 9 -21 18 0 21 18 6 30 -13 10 -15 9 -15 -9z"/>
<path d="M3845 1630 c3 -5 11 -10 16 -10 6 0 7 5 4 10 -3 6 -11 10 -16 10 -6
0 -7 -4 -4 -10z"/>
<path d="M3875 1609 c-8 -35 1 -52 12 -23 3 10 11 22 16 25 11 7 1 29 -13 29
-5 0 -11 -14 -15 -31z"/>
<path d="M3815 1580 c3 -5 8 -10 11 -10 2 0 4 5 4 10 0 6 -5 10 -11 10 -5 0
-7 -4 -4 -10z"/>
<path d="M3775 1560 c-3 -5 -1 -10 4 -10 6 0 11 5 11 10 0 6 -2 10 -4 10 -3 0
-8 -4 -11 -10z"/>
<path d="M3728 1463 c7 -3 16 -2 19 1 4 3 -2 6 -13 5 -11 0 -14 -3 -6 -6z"/>
<path d="M3661 1364 c0 -11 3 -14 6 -6 3 7 2 16 -1 19 -3 4 -6 -2 -5 -13z"/>
<path d="M3720 1340 c0 -5 5 -10 10 -10 6 0 10 5 10 10 0 6 -4 10 -10 10 -5 0
-10 -4 -10 -10z"/>
<path d="M3698 1313 c6 -2 12 -11 12 -19 0 -8 5 -14 10 -14 16 0 11 27 -6 34
-9 3 -19 6 -22 5 -4 0 -1 -3 6 -6z"/>
<path d="M3730 1256 c0 -9 5 -16 10 -16 6 0 10 4 10 9 0 6 -4 13 -10 16 -5 3
-10 -1 -10 -9z"/>
<path d="M3697 1233 c5 -13 2 -15 -11 -10 -14 6 -17 3 -12 -9 3 -8 6 -18 6
-21 0 -3 7 0 15 7 17 14 20 50 5 50 -5 0 -6 -8 -3 -17z"/>
<path d="M3650 1200 c0 -5 5 -10 10 -10 6 0 10 5 10 10 0 6 -4 10 -10 10 -5 0
-10 -4 -10 -10z"/>
<path d="M3675 1160 c-8 -13 -1 -24 14 -19 6 3 7 10 2 18 -6 10 -10 10 -16 1z"/>
<path d="M3585 1091 c-3 -5 -1 -12 5 -16 5 -3 10 1 10 9 0 18 -6 21 -15 7z"/>
<path d="M3681 1054 c0 -11 3 -14 6 -6 3 7 2 16 -1 19 -3 4 -6 -2 -5 -13z"/>
<path d="M2255 1050 c-15 -7 -10 -9 23 -9 23 -1 42 4 42 9 0 12 -37 12 -65 0z"/>
<path d="M3570 1056 c0 -2 7 -6 15 -10 8 -3 15 -1 15 4 0 6 -7 10 -15 10 -8 0
-15 -2 -15 -4z"/>
<path d="M3733 983 c9 -9 20 -13 24 -9 4 4 1 11 -7 16 -25 16 -35 11 -17 -7z"/>
<path d="M3695 940 l-20 -9 20 0 c11 0 27 4 35 9 13 9 13 10 0 9 -8 0 -24 -4
-35 -9z"/>
<path d="M3760 940 c0 -5 5 -10 11 -10 5 0 7 5 4 10 -3 6 -8 10 -11 10 -2 0
-4 -4 -4 -10z"/>
<path d="M2290 920 c0 -5 5 -10 11 -10 5 0 7 5 4 10 -3 6 -8 10 -11 10 -2 0
-4 -4 -4 -10z"/>
<path d="M3700 900 c0 -5 4 -10 9 -10 6 0 13 5 16 10 3 6 -1 10 -9 10 -9 0
-16 -4 -16 -10z"/>
<path d="M3751 884 c0 -11 3 -14 6 -6 3 7 2 16 -1 19 -3 4 -6 -2 -5 -13z"/>
<path d="M2220 860 c0 -5 5 -10 10 -10 6 0 10 5 10 10 0 6 -4 10 -10 10 -5 0
-10 -4 -10 -10z"/>
<path d="M3868 823 c7 -3 16 -2 19 1 4 3 -2 6 -13 5 -11 0 -14 -3 -6 -6z"/>
</g>
</svg>
